<svg xmlns="http://www.w3.org/2000/svg" viewBox="0 0 200 200">
  <defs>
    <linearGradient id="gradient1" x1="0%" y1="0%" x2="100%" y2="100%">
      <stop offset="0%" style="stop-color:#667eea;stop-opacity:1" />
      <stop offset="100%" style="stop-color:#764ba2;stop-opacity:1" />
    </linearGradient>
    <linearGradient id="gradient2" x1="0%" y1="0%" x2="100%" y2="100%">
      <stop offset="0%" style="stop-color:#f093fb;stop-opacity:1" />
      <stop offset="100%" style="stop-color:#f5576c;stop-opacity:1" />
    </linearGradient>
  </defs>
  
  <!-- 背景圆 -->
  <circle cx="100" cy="100" r="90" fill="url(#gradient1)" opacity="0.9"/>
  
  <!-- 内部装饰圆 -->
  <circle cx="100" cy="100" r="75" fill="none" stroke="url(#gradient2)" stroke-width="3"/>
  
  <!-- 柱状图 -->
  <g transform="translate(100, 100)">
    <!-- 第一根柱子 -->
    <rect x="-40" y="-30" width="12" height="40" rx="2" fill="white" opacity="0.9"/>
    <!-- 第二根柱子 -->
    <rect x="-20" y="-45" width="12" height="55" rx="2" fill="white" opacity="0.9"/>
    <!-- 第三根柱子 -->
    <rect x="0" y="-20" width="12" height="30" rx="2" fill="white" opacity="0.9"/>
    <!-- 第四根柱子 -->
    <rect x="20" y="-35" width="12" height="45" rx="2" fill="white" opacity="0.9"/>
    <!-- 第五根柱子 -->
    <rect x="40" y="-25" width="12" height="35" rx="2" fill="white" opacity="0.9"/>
  </g>
  
  <!-- 底部横线 -->
  <line x1="50" y1="130" x2="150" y2="130" stroke="white" stroke-width="3" stroke-linecap="round"/>
  
  <!-- 顶部装饰 -->
  <circle cx="100" cy="40" r="4" fill="white" opacity="0.8"/>
  
  <!-- 数据点装饰 -->
  <circle cx="60" cy="90" r="2" fill="white" opacity="0.7"/>
  <circle cx="80" cy="75" r="2" fill="white" opacity="0.7"/>
  <circle cx="120" cy="85" r="2" fill="white" opacity="0.7"/>
  <circle cx="140" cy="70" r="2" fill="white" opacity="0.7"/>
</svg>